<?xml version="1.0" encoding="UTF-8" standalone="no"?>
<svg xmlns:rdf="http://www.w3.org/1999/02/22-rdf-syntax-ns#" xmlns="http://www.w3.org/2000/svg" viewBox="0 0 64.000002 64.000002" height="64" width="64" version="1.1" xmlns:cc="http://creativecommons.org/ns#" xmlns:dc="http://purl.org/dc/elements/1.1/">
 <metadata>
  <rdf:RDF>
   <cc:Work rdf:about="">
    <dc:format>image/svg+xml</dc:format>
    <dc:type rdf:resource="http://purl.org/dc/dcmitype/StillImage"/>
    <dc:title/>
   </cc:Work>
  </rdf:RDF>
 </metadata>
 <path fill="#fff" d="m29.425 1.4603c-3.5876 0.93168-6.2682 3.6798-6.805 7.1439-1.0055 7.0446-1.4926 15.081-3.736 21.571-2.0849 5.8398-4.7814 13.699-3.9389 20.134 0.80532 5.7328 5.5529 9.3752 10.748 11.169 5.173 1.7166 10.644 1.7315 15.231-0.64946 5.6912-3.0131 8.2438-8.9795 8.286-16.141 0.03334-0.75151-0.1133-2.3528-0.73219-2.545-0.9557 0.52892-1.9697 1.1933-2.9986 1.8701-2.3321 1.5501-4.6847 3.0305-7.2593 3.5886-3.1636 0.66753-6.3066-0.0205-7.6521-3.1801-1.1546-3.3197-0.45514-7.6325-0.46445-10.91 0.07697-5.3351-0.69412-10.128-1.4578-14.495 1.4724 0.15245 2.9955 0.10838 4.1636-0.50818 3.2676-2.005 5.8816-5.2167 6.3797-8.8357 0.23011-2.01-0.56142-4.1504-1.6017-5.4803-2.2037-2.4375-5.2697-3.2755-8.1617-2.7319zm1.2304 22.762c0.72428 4.9637 0.80723 10.125 0.59333 14.735-0.21859 4.2443 0.24992 6.481 3.5876 7.5436 1.3011 0.45238 2.8673 0.27184 4.0606-0.05796 2.7653-0.78177 4.9515-2.7176 6.9997-3.9104 1.8897-0.98955 2.6034-2.0793 2.1558-4.1094-0.70887-2.2436-1.9144-4.2284-4.0844-5.0026-2.3233-0.82377-4.3455-0.20517-6.4269-0.03404 1.867-2.1932 1.9488-4.933-1.0739-5.6817-2.4965-0.58252-3.8641-2.3124-5.8044-3.4799-0.0028-0.0016-0.0053-0.0026-0.0074-0.0028zm14.682 11.492c1.1732 1.1094 1.1854 3.1785 0.18429 3.9352-1.2853 0.74893-2.975 1.0549-4.0559 2.1034-0.38241 0.37934-0.54173 0.69907-0.6437 1.2916-0.11269 0.65483-0.21747 0.91993-0.50509 1.2785-0.86873 0.97304-2.3108 1.3697-3.4679 1.4499-2.6206 0.11289-4.6775-1.7837-4.6801-4.2475 0.19183-2.8731 3.1465-4.254 5.7256-4.5869 0.2167 1.1496-2.4001 2.8646-1.7456 3.9109 0.31774 0.16696 0.67607-0.2582 0.86153-0.43206 0.71735-0.79765 1.5596-1.0111 2.3954-1.374-0.17537-0.20338-0.36308-0.44537-0.43999-0.6848-0.10128-1.2279 0.54553-2.4181 1.3559-3.225 1.5366-1.4617 3.8523-0.54933 5.0156 0.58071z"/>
</svg>
